<?xml version="1.0" encoding="UTF-8" standalone="no"?>
<!-- Created with Inkscape (http://www.inkscape.org/) -->

<svg
   version="1.1"
   id="svg487638"
   width="800"
   height="800"
   viewBox="0 0 800 800"
   sodipodi:docname="yacht-sailing--publicdomainvectors.org.svg"
   inkscape:version="1.2 (dc2aedaf03, 2022-05-15)"
   xmlns:inkscape="http://www.inkscape.org/namespaces/inkscape"
   xmlns:sodipodi="http://sodipodi.sourceforge.net/DTD/sodipodi-0.dtd"
   xmlns="http://www.w3.org/2000/svg"
   xmlns:svg="http://www.w3.org/2000/svg">
  <defs
     id="defs487642">
    <clipPath
       clipPathUnits="userSpaceOnUse"
       id="clipPath487656">
      <path
         d="M 0,600 H 600 V 0 H 0 Z"
         id="path487654" />
    </clipPath>
  </defs>
  <sodipodi:namedview
     id="namedview487640"
     pagecolor="#ffffff"
     bordercolor="#000000"
     borderopacity="0.25"
     inkscape:showpageshadow="2"
     inkscape:pageopacity="0.0"
     inkscape:pagecheckerboard="0"
     inkscape:deskcolor="#d1d1d1"
     showgrid="false"
     inkscape:zoom="1.04625"
     inkscape:cx="400"
     inkscape:cy="400.4779"
     inkscape:window-width="1920"
     inkscape:window-height="1017"
     inkscape:window-x="-8"
     inkscape:window-y="-8"
     inkscape:window-maximized="1"
     inkscape:current-layer="g487646">
    <inkscape:page
       x="0"
       y="0"
       id="page487644"
       width="800"
       height="800" />
  </sodipodi:namedview>
  <g
     id="g487646"
     inkscape:groupmode="layer"
     inkscape:label="Page 1"
     transform="matrix(1.3333333,0,0,-1.3333333,0,800)">
    <path
       d="M 2.294,0 H 600 V 597.706 H 2.294 Z"
       style="fill:#a9e0cd;fill-opacity:1;fill-rule:nonzero;stroke:none"
       id="path487648" />
    <g
       id="g487650">
      <g
         id="g487652"
         clip-path="url(#clipPath487656)">
        <g
           id="g487658"
           transform="translate(68.2974,413.1328)">
          <path
             d="m 0,0 h 433.902 c 7.071,0 12.858,-5.787 12.858,-12.859 0,-7.072 -5.787,-12.859 -12.858,-12.859 h -66.391 c -7.072,0 -12.859,-5.787 -12.859,-12.859 0,-7.071 5.785,-12.858 12.859,-12.858 h 40.401 c 7.072,0 12.856,-5.788 12.856,-12.858 v -10e-4 c 0,-7.072 -5.784,-12.858 -12.856,-12.858 h -59.111 c -7.069,0 -12.856,-5.788 -12.856,-12.859 0,-7.072 5.784,-12.859 12.856,-12.859 h 66.015 48.984 c 7.072,0 12.86,-5.786 12.86,-12.858 0,-7.072 -5.788,-12.859 -12.86,-12.859 H -27.521 c -7.071,0 -12.858,5.786 -12.858,12.859 0,7.072 5.786,12.858 12.858,12.858 h 148.879 c 7.072,0 12.858,5.786 12.858,12.859 0,7.073 -5.786,12.859 -12.858,12.859 H 38.695 c -7.072,0 -12.858,5.786 -12.858,12.858 v 10e-4 c 0,7.071 5.786,12.858 12.858,12.858 h 3.675 44.698 c 7.072,0 12.859,5.787 12.859,12.858 0,7.074 -5.787,12.859 -12.859,12.859 H 8.573 0 c -7.072,0 -12.859,5.787 -12.859,12.859 C -12.859,-5.787 -7.072,0 0,0"
             style="fill:#f7ef0d;fill-opacity:1;fill-rule:evenodd;stroke:none"
             id="path487660" />
        </g>
        <g
           id="g487662"
           transform="translate(214.2212,391.7876)">
          <path
             d="m 0,0 h 151.105 c 7.074,0 12.859,-5.787 12.859,-12.859 0,-7.072 -5.785,-12.859 -12.859,-12.859 H 0 c -7.072,0 -12.859,5.787 -12.859,12.859 C -12.859,-5.787 -7.072,0 0,0"
             style="fill:#f2a50f;fill-opacity:1;fill-rule:evenodd;stroke:none"
             id="path487664" />
        </g>
        <g
           id="g487666"
           transform="translate(291.2646,335.0947)">
          <path
             d="m 0,0 h 76.243 c 7.072,0 12.86,-5.786 12.86,-12.858 v -10e-4 c 0,-7.072 -5.788,-12.858 -12.86,-12.858 H 0 c -7.073,0 -12.859,5.786 -12.859,12.858 v 10e-4 C -12.859,-5.786 -7.073,0 0,0"
             style="fill:#f2a50f;fill-opacity:1;fill-rule:evenodd;stroke:none"
             id="path487668" />
        </g>
        <g
           id="g487670"
           transform="translate(195.9063,268.752)">
          <path
             d="m 0,0 c -7.072,0 -12.859,5.786 -12.859,12.857 0,7.074 5.787,12.86 12.859,12.86 h 301.258 c 7.072,0 12.859,-5.786 12.859,-12.86 C 314.117,5.786 308.33,0 301.258,0 h -82.129 -96.603 c -7.073,0 -12.858,-5.786 -12.858,-12.858 0,-7.074 5.785,-12.86 12.858,-12.86 h 33.368 c 7.073,0 12.859,-5.786 12.859,-12.858 0,-7.073 -5.786,-12.86 -12.859,-12.86 h -301.257 c -7.073,0 -12.86,5.787 -12.86,12.86 0,7.072 5.787,12.858 12.86,12.858 H -82.13 48.018 c 7.073,0 12.858,5.786 12.858,12.86 C 60.876,-5.786 55.091,0 48.018,0 Z"
             style="fill:#fcf9cc;fill-opacity:1;fill-rule:evenodd;stroke:none"
             id="path487672" />
        </g>
        <g
           id="g487674"
           transform="translate(457.5508,126.4355)">
          <path
             d="M 0,0 H 89.279 L 52.371,-39.899 h -202.996 l 25.437,25.718 H -14.179 C -6.381,-14.181 0,-7.798 0,0"
             style="fill:#ffffff;fill-opacity:1;fill-rule:evenodd;stroke:none"
             id="path487676" />
        </g>
        <g
           id="g487678"
           transform="translate(441.0938,260.1055)">
          <path
             d="m 0,0 v -147.851 l -4.987,16.675 h -77.309 l -17.065,-17.065 z"
             style="fill:#ececf4;fill-opacity:1;fill-rule:evenodd;stroke:none"
             id="path487680" />
        </g>
        <g
           id="g487682"
           transform="translate(441.0938,260.1055)">
          <path
             d="m 0,0 105.736,-133.67 -10.751,9.287 -121.919,10.166 z"
             style="fill:#ffffff;fill-opacity:1;fill-rule:evenodd;stroke:none"
             id="path487684" />
        </g>
        <g
           id="g487686"
           transform="translate(454.2695,64.0693)">
          <path
             d="m 0,0 h 107.249 c 7.071,0 12.859,-5.787 12.859,-12.858 0,-7.073 -5.788,-12.86 -12.859,-12.86 H 0 c -7.074,0 -12.858,5.787 -12.858,12.86 C -12.858,-5.787 -7.074,0 0,0 m -301.288,81.403 h 159.237 c 7.073,0 12.859,-5.785 12.859,-12.856 v -0.003 c 0,-7.071 -5.786,-12.856 -12.859,-12.856 h -159.237 c -7.073,0 -12.858,5.785 -12.858,12.856 v 0.003 c 0,7.071 5.785,12.856 12.858,12.856 M -87.604,0 h 40.768 c 7.071,0 12.858,-5.787 12.858,-12.858 0,-7.073 -5.787,-12.86 -12.858,-12.86 h -40.768 c -7.071,0 -12.858,5.787 -12.858,12.86 0,7.071 5.787,12.858 12.858,12.858 m -140.275,40.202 h 14.298 c 7.072,0 12.859,-5.787 12.859,-12.858 0,-7.074 -5.787,-12.86 -12.859,-12.86 h -14.298 c -7.073,0 -12.859,5.786 -12.859,12.86 0,7.071 5.786,12.858 12.859,12.858 m -173.024,83.358 h 14.299 c 7.072,0 12.858,-5.786 12.858,-12.86 0,-7.071 -5.786,-12.858 -12.858,-12.858 h -14.299 c -7.073,0 -12.858,5.787 -12.858,12.858 0,7.074 5.785,12.86 12.858,12.86 m 4.442,-83.358 h 107.251 c 7.071,0 12.858,-5.787 12.858,-12.858 0,-7.074 -5.787,-12.86 -12.858,-12.86 h -107.251 c -7.072,0 -12.858,5.786 -12.858,12.86 0,7.071 5.786,12.858 12.858,12.858"
             style="fill:#c7ecdf;fill-opacity:1;fill-rule:evenodd;stroke:none"
             id="path487688" />
        </g>
        <g
           id="g487690"
           transform="translate(159.1138,494.7085)">
          <path
             d="m 0,0 h 19.386 c 9.206,0 16.716,-7.509 16.716,-16.716 v -0.226 h -52.818 v 0.226 C -16.716,-7.509 -9.208,0 0,0"
             style="fill:#769a2a;fill-opacity:1;fill-rule:evenodd;stroke:none"
             id="path487692" />
        </g>
        <g
           id="g487694"
           transform="translate(198.3208,495.3911)">
          <path
             d="m 0,0 h 29.523 c 9.183,0 16.673,-7.49 16.673,-16.673 v -0.224 h -62.87 v 0.224 C -16.674,-7.49 -9.184,0 0,0"
             style="fill:#577227;fill-opacity:1;fill-rule:evenodd;stroke:none"
             id="path487696" />
        </g>
        <g
           id="g487698"
           transform="translate(186.6436,503.3862)">
          <path
             d="m 0,0 v 0 c 4.597,0 8.359,-3.761 8.359,-8.358 v -101.755 c 0,-4.597 -3.762,-8.359 -8.359,-8.359 -4.597,0 -8.359,3.762 -8.359,8.359 V -8.358 C -8.359,-3.761 -4.597,0 0,0"
             style="fill:#945d29;fill-opacity:1;fill-rule:evenodd;stroke:none"
             id="path487700" />
        </g>
        <g
           id="g487702"
           transform="translate(199.8525,517.9233)">
          <path
             d="M 0,0 H 43.176 C 56.606,0 67.56,-10.954 67.56,-24.383 v -0.329 h -91.943 v 0.329 C -24.383,-10.954 -13.432,0 0,0"
             style="fill:#769a2a;fill-opacity:1;fill-rule:evenodd;stroke:none"
             id="path487704" />
        </g>
        <g
           id="g487706"
           transform="translate(134.438,517.9233)">
          <path
             d="M 0,0 H 28.276 C 41.706,0 52.66,-10.954 52.66,-24.383 v -0.329 h -77.043 v 0.329 C -24.383,-10.954 -13.43,0 0,0"
             style="fill:#87b027;fill-opacity:1;fill-rule:evenodd;stroke:none"
             id="path487708" />
        </g>
        <g
           id="g487710"
           transform="translate(176.3774,482.2188)">
          <path
             d="m 0,0 c 4.804,0 8.722,3.917 8.722,8.722 0,4.803 -3.918,8.721 -8.722,8.721 -4.804,0 -8.721,-3.918 -8.721,-8.721 C -8.721,3.917 -4.804,0 0,0"
             style="fill:#602e15;fill-opacity:1;fill-rule:evenodd;stroke:none"
             id="path487712" />
        </g>
        <g
           id="g487714"
           transform="translate(195.0024,482.2188)">
          <path
             d="m 0,0 c 4.803,0 8.721,3.917 8.721,8.722 0,4.803 -3.918,8.721 -8.721,8.721 -4.804,0 -8.722,-3.918 -8.722,-8.721 C -8.722,3.917 -4.804,0 0,0"
             style="fill:#602e15;fill-opacity:1;fill-rule:evenodd;stroke:none"
             id="path487716" />
        </g>
        <g
           id="g487718"
           transform="translate(186.0068,476.3135)">
          <path
             d="m 0,0 c 4.806,0 8.722,3.918 8.722,8.721 0,4.804 -3.916,8.722 -8.722,8.722 -4.803,0 -8.721,-3.918 -8.721,-8.722 C -8.721,3.918 -4.803,0 0,0"
             style="fill:#3d2115;fill-opacity:1;fill-rule:evenodd;stroke:none"
             id="path487720" />
        </g>
        <g
           id="g487722"
           transform="translate(268.1362,448.9189)">
          <path
             d="m 0,0 h 19.387 c 9.205,0 16.715,-7.509 16.715,-16.716 v -0.225 h -52.817 v 0.225 C -16.715,-7.509 -9.207,0 0,0"
             style="fill:#769a2a;fill-opacity:1;fill-rule:evenodd;stroke:none"
             id="path487724" />
        </g>
        <g
           id="g487726"
           transform="translate(307.3438,449.6016)">
          <path
             d="m 0,0 h 29.523 c 9.184,0 16.674,-7.49 16.674,-16.673 v -0.224 h -62.871 v 0.224 C -16.674,-7.49 -9.184,0 0,0"
             style="fill:#577227;fill-opacity:1;fill-rule:evenodd;stroke:none"
             id="path487728" />
        </g>
        <g
           id="g487730"
           transform="translate(295.6665,457.5962)">
          <path
             d="m 0,0 v 0 c 4.597,0 8.359,-3.761 8.359,-8.359 v -101.753 c 0,-4.599 -3.762,-8.359 -8.359,-8.359 -4.597,0 -8.359,3.76 -8.359,8.359 V -8.359 C -8.359,-3.761 -4.597,0 0,0"
             style="fill:#945d29;fill-opacity:1;fill-rule:evenodd;stroke:none"
             id="path487732" />
        </g>
        <g
           id="g487734"
           transform="translate(308.876,472.1333)">
          <path
             d="m 0,0 h 43.175 c 13.429,0 24.384,-10.954 24.384,-24.384 v -0.328 h -91.943 v 0.328 C -24.384,-10.953 -13.432,0 0,0"
             style="fill:#769a2a;fill-opacity:1;fill-rule:evenodd;stroke:none"
             id="path487736" />
        </g>
        <g
           id="g487738"
           transform="translate(243.4619,472.1333)">
          <path
             d="m 0,0 h 28.275 c 13.431,0 24.384,-10.953 24.384,-24.384 v -0.328 h -77.043 v 0.328 C -24.384,-10.953 -13.432,0 0,0"
             style="fill:#87b027;fill-opacity:1;fill-rule:evenodd;stroke:none"
             id="path487740" />
        </g>
        <g
           id="g487742"
           transform="translate(285.4004,436.4282)">
          <path
             d="m 0,0 c 4.804,0 8.722,3.918 8.722,8.723 0,4.803 -3.918,8.721 -8.722,8.721 -4.804,0 -8.721,-3.918 -8.721,-8.721 C -8.721,3.918 -4.804,0 0,0"
             style="fill:#602e15;fill-opacity:1;fill-rule:evenodd;stroke:none"
             id="path487744" />
        </g>
        <g
           id="g487746"
           transform="translate(304.0254,436.4282)">
          <path
             d="m 0,0 c 4.803,0 8.721,3.918 8.721,8.723 0,4.803 -3.918,8.721 -8.721,8.721 -4.804,0 -8.722,-3.918 -8.722,-8.721 C -8.722,3.918 -4.804,0 0,0"
             style="fill:#602e15;fill-opacity:1;fill-rule:evenodd;stroke:none"
             id="path487748" />
        </g>
        <g
           id="g487750"
           transform="translate(295.0298,430.5225)">
          <path
             d="m 0,0 c 4.805,0 8.722,3.918 8.722,8.724 0,4.802 -3.917,8.72 -8.722,8.72 -4.803,0 -8.721,-3.918 -8.721,-8.72 C -8.721,3.918 -4.803,0 0,0"
             style="fill:#3d2115;fill-opacity:1;fill-rule:evenodd;stroke:none"
             id="path487752" />
        </g>
        <g
           id="g487754"
           transform="translate(378.6133,495.436)">
          <path
             d="m 0,0 h 19.385 c 9.208,0 16.718,-7.509 16.718,-16.717 v -0.225 h -52.821 v 0.225 C -16.718,-7.509 -9.208,0 0,0"
             style="fill:#769a2a;fill-opacity:1;fill-rule:evenodd;stroke:none"
             id="path487756" />
        </g>
        <g
           id="g487758"
           transform="translate(417.8203,496.1187)">
          <path
             d="m 0,0 h 29.524 c 9.182,0 16.673,-7.491 16.673,-16.674 v -0.224 h -62.87 v 0.224 C -16.673,-7.491 -9.183,0 0,0"
             style="fill:#577227;fill-opacity:1;fill-rule:evenodd;stroke:none"
             id="path487760" />
        </g>
        <g
           id="g487762"
           transform="translate(406.1416,504.1133)">
          <path
             d="m 0,0 v 0 c 4.6,0 8.358,-3.761 8.358,-8.358 v -101.756 c 0,-4.597 -3.758,-8.358 -8.358,-8.358 -4.597,0 -8.356,3.761 -8.356,8.358 V -8.358 C -8.356,-3.761 -4.597,0 0,0"
             style="fill:#945d29;fill-opacity:1;fill-rule:evenodd;stroke:none"
             id="path487764" />
        </g>
        <g
           id="g487766"
           transform="translate(419.3506,518.6494)">
          <path
             d="M 0,0 H 43.177 C 56.607,0 67.56,-10.953 67.56,-24.383 v -0.328 h -91.944 v 0.328 C -24.384,-10.953 -13.429,0 0,0"
             style="fill:#769a2a;fill-opacity:1;fill-rule:evenodd;stroke:none"
             id="path487768" />
        </g>
        <g
           id="g487770"
           transform="translate(353.9375,518.6494)">
          <path
             d="m 0,0 h 28.277 c 13.429,0 24.384,-10.953 24.384,-24.383 v -0.328 h -77.045 v 0.328 C -24.384,-10.953 -13.431,0 0,0"
             style="fill:#87b027;fill-opacity:1;fill-rule:evenodd;stroke:none"
             id="path487772" />
        </g>
        <g
           id="g487774"
           transform="translate(395.876,482.9453)">
          <path
             d="m 0,0 c 4.805,0 8.723,3.918 8.723,8.722 0,4.804 -3.918,8.722 -8.723,8.722 -4.803,0 -8.722,-3.918 -8.722,-8.722 C -8.722,3.918 -4.803,0 0,0"
             style="fill:#602e15;fill-opacity:1;fill-rule:evenodd;stroke:none"
             id="path487776" />
        </g>
        <g
           id="g487778"
           transform="translate(414.5,482.9453)">
          <path
             d="m 0,0 c 4.806,0 8.724,3.918 8.724,8.722 0,4.804 -3.918,8.722 -8.724,8.722 -4.803,0 -8.721,-3.918 -8.721,-8.722 C -8.721,3.918 -4.803,0 0,0"
             style="fill:#602e15;fill-opacity:1;fill-rule:evenodd;stroke:none"
             id="path487780" />
        </g>
        <g
           id="g487782"
           transform="translate(405.5078,477.0396)">
          <path
             d="m 0,0 c 4.803,0 8.721,3.918 8.721,8.722 0,4.804 -3.918,8.722 -8.721,8.722 -4.806,0 -8.724,-3.918 -8.724,-8.722 C -8.724,3.918 -4.806,0 0,0"
             style="fill:#3d2115;fill-opacity:1;fill-rule:evenodd;stroke:none"
             id="path487784" />
        </g>
      </g>
    </g>
  </g>
</svg>
